<svg width="52" height="52" viewBox="0 0 52 52" fill="none" xmlns="http://www.w3.org/2000/svg">
<path d="M26 52C31.1423 52 36.1691 50.4751 40.4448 47.6182C44.7205 44.7613 48.053 40.7006 50.0209 35.9498C51.9887 31.1989 52.5036 25.9712 51.5004 20.9277C50.4972 15.8841 48.0209 11.2514 44.3848 7.61523C40.7486 3.97906 36.1159 1.5028 31.0724 0.499583C26.0288 -0.503633 20.8011 0.0112531 16.0502 1.97913C11.2994 3.94701 7.23871 7.27949 4.38179 11.5552C1.52487 15.8308 7.76468e-07 20.8577 0 26H1.90523C1.90523 21.2345 3.31836 16.576 5.96593 12.6137C8.6135 8.65129 12.3766 5.56301 16.7793 3.73933C21.1821 1.91565 26.0267 1.4385 30.7007 2.3682C35.3746 3.2979 39.6679 5.59271 43.0376 8.96242C46.4073 12.3321 48.7021 16.6254 49.6318 21.2993C50.5615 25.9733 50.0843 30.8179 48.2607 35.2207C46.437 39.6234 43.3487 43.3865 39.3863 46.0341C35.424 48.6816 30.7655 50.0948 26 50.0948V52Z" fill="#037BFF"/>
<path d="M40.7071 26.7071C41.0976 26.3166 41.0976 25.6834 40.7071 25.2929L34.3431 18.9289C33.9526 18.5384 33.3195 18.5384 32.9289 18.9289C32.5384 19.3195 32.5384 19.9526 32.9289 20.3431L38.5858 26L32.9289 31.6569C32.5384 32.0474 32.5384 32.6805 32.9289 33.0711C33.3195 33.4616 33.9526 33.4616 34.3431 33.0711L40.7071 26.7071ZM13 27H40V25H13V27Z" fill="white"/>
</svg>
