<svg width="20" height="22" viewBox="0 0 20 22" fill="none" xmlns="http://www.w3.org/2000/svg">
<path d="M9.55804 12.7441C9.25714 12.7441 9.00509 12.6421 8.8019 12.4382C8.59799 12.235 8.49604 11.983 8.49604 11.6821C8.49604 11.3811 8.59799 11.1287 8.8019 10.9248C9.00509 10.7216 9.25714 10.62 9.55804 10.62C9.85894 10.62 10.1113 10.7216 10.3153 10.9248C10.5184 11.1287 10.62 11.3811 10.62 11.6821C10.62 11.983 10.5184 12.235 10.3153 12.4382C10.1113 12.6421 9.85894 12.7441 9.55804 12.7441ZM5.31002 12.7441C5.00912 12.7441 4.75672 12.6421 4.55281 12.4382C4.34962 12.235 4.24802 11.983 4.24802 11.6821C4.24802 11.3811 4.34962 11.1287 4.55281 10.9248C4.75672 10.7216 5.00912 10.62 5.31002 10.62C5.61092 10.62 5.86333 10.7216 6.06723 10.9248C6.27043 11.1287 6.37203 11.3811 6.37203 11.6821C6.37203 11.983 6.27043 12.235 6.06723 12.4382C5.86333 12.6421 5.61092 12.7441 5.31002 12.7441ZM13.8061 12.7441C13.5052 12.7441 13.2531 12.6421 13.0499 12.4382C12.846 12.235 12.7441 11.983 12.7441 11.6821C12.7441 11.3811 12.846 11.1287 13.0499 10.9248C13.2531 10.7216 13.5052 10.62 13.8061 10.62C14.107 10.62 14.359 10.7216 14.5622 10.9248C14.7661 11.1287 14.8681 11.3811 14.8681 11.6821C14.8681 11.983 14.7661 12.235 14.5622 12.4382C14.359 12.6421 14.107 12.7441 13.8061 12.7441ZM9.55804 16.9921C9.25714 16.9921 9.00509 16.8901 8.8019 16.6862C8.59799 16.483 8.49604 16.231 8.49604 15.9301C8.49604 15.6292 8.59799 15.3771 8.8019 15.1739C9.00509 14.97 9.25714 14.8681 9.55804 14.8681C9.85894 14.8681 10.1113 14.97 10.3153 15.1739C10.5184 15.3771 10.62 15.6292 10.62 15.9301C10.62 16.231 10.5184 16.483 10.3153 16.6862C10.1113 16.8901 9.85894 16.9921 9.55804 16.9921ZM5.31002 16.9921C5.00912 16.9921 4.75672 16.8901 4.55281 16.6862C4.34962 16.483 4.24802 16.231 4.24802 15.9301C4.24802 15.6292 4.34962 15.3771 4.55281 15.1739C4.75672 14.97 5.00912 14.8681 5.31002 14.8681C5.61092 14.8681 5.86333 14.97 6.06723 15.1739C6.27043 15.3771 6.37203 15.6292 6.37203 15.9301C6.37203 16.231 6.27043 16.483 6.06723 16.6862C5.86333 16.8901 5.61092 16.9921 5.31002 16.9921ZM13.8061 16.9921C13.5052 16.9921 13.2531 16.8901 13.0499 16.6862C12.846 16.483 12.7441 16.231 12.7441 15.9301C12.7441 15.6292 12.846 15.3771 13.0499 15.1739C13.2531 14.97 13.5052 14.8681 13.8061 14.8681C14.107 14.8681 14.359 14.97 14.5622 15.1739C14.7661 15.3771 14.8681 15.6292 14.8681 15.9301C14.8681 16.231 14.7661 16.483 14.5622 16.6862C14.359 16.8901 14.107 16.9921 13.8061 16.9921ZM2.12401 21.2401C1.53991 21.2401 1.0397 21.0323 0.623397 20.6167C0.207799 20.2004 0 19.7002 0 19.1161V4.24802C0 3.66392 0.207799 3.16407 0.623397 2.74847C1.0397 2.33216 1.53991 2.12401 2.12401 2.12401H3.18601V0H5.31002V2.12401H13.8061V0H15.9301V2.12401H16.9921C17.5762 2.12401 18.0764 2.33216 18.4927 2.74847C18.9083 3.16407 19.1161 3.66392 19.1161 4.24802V19.1161C19.1161 19.7002 18.9083 20.2004 18.4927 20.6167C18.0764 21.0323 17.5762 21.2401 16.9921 21.2401H2.12401ZM2.12401 19.1161H16.9921V8.49604H2.12401V19.1161Z" fill="#037BFF"/>
</svg>
