<svg width="11" height="23" viewBox="0 0 11 23" fill="none" xmlns="http://www.w3.org/2000/svg">
<path d="M7.25179 22.2471C7.14497 22.2513 7.07662 22.2599 7.00826 22.2599C5.54709 22.2599 4.09019 22.2556 2.62901 22.2642C2.42394 22.2642 2.36839 22.2086 2.36839 22.0035C2.37267 18.6027 2.37267 15.1976 2.37267 11.7967C2.37267 11.707 2.37267 11.6173 2.37267 11.5019C1.57799 11.5019 0.804683 11.5019 0.0185547 11.5019C0.0185547 10.2885 0.0185547 9.09652 0.0185547 7.87033C0.0997309 7.87033 0.176635 7.87033 0.249266 7.87033C0.890131 7.87033 1.531 7.86606 2.17186 7.8746C2.33421 7.8746 2.37694 7.8276 2.37694 7.66952C2.36839 6.71677 2.36839 5.75975 2.37694 4.80699C2.38121 4.14049 2.48802 3.49108 2.79564 2.88867C3.2357 2.03846 3.9321 1.48731 4.81223 1.14552C5.52999 0.863535 6.28622 0.760997 7.04671 0.74818C8.28572 0.73109 9.52472 0.739635 10.7637 0.735362C10.8791 0.735362 10.9731 0.73109 10.9731 0.893442C10.9688 2.06836 10.9688 3.24328 10.9688 4.4182C10.9688 4.43102 10.9645 4.44384 10.9474 4.49938C10.8748 4.49938 10.7936 4.49938 10.7125 4.49938C9.94342 4.49938 9.17438 4.49511 8.40534 4.49938C7.96101 4.49938 7.60213 4.67882 7.37569 5.06761C7.30733 5.18297 7.2646 5.3325 7.2646 5.46922C7.25179 6.19553 7.2646 6.92185 7.25606 7.64816C7.25606 7.81906 7.30733 7.86606 7.47395 7.86606C8.54206 7.85751 9.61017 7.86178 10.6783 7.86178C10.7637 7.86178 10.8449 7.86178 10.9902 7.86178C10.8406 9.0837 10.6954 10.28 10.5458 11.4891C9.435 11.4891 8.35407 11.4891 7.25179 11.4891C7.25179 15.0822 7.25179 18.654 7.25179 22.2471Z" fill="#027BFF"/>
</svg>
