<svg width="23" height="23" viewBox="0 0 23 23" fill="none" xmlns="http://www.w3.org/2000/svg">
<g clip-path="url(#clip0_2149_957)">
<path d="M21.7179 11.5427C21.7179 13.038 21.6878 14.5376 21.7265 16.033C21.7909 18.6798 20.128 20.7251 18.0097 21.6361C17.1589 22.0013 16.2651 22.1947 15.3413 22.1947C12.4495 22.199 9.55342 22.2376 6.66162 22.1818C4.48311 22.1388 2.69131 21.2279 1.40654 19.4318C0.731934 18.4865 0.409668 17.4123 0.409668 16.2478C0.409668 13.1669 0.409668 10.0904 0.409668 7.00952C0.409668 4.49585 1.63428 2.73842 3.8085 1.59546C4.75381 1.10132 5.78076 0.890769 6.85068 0.886472C9.65654 0.886472 12.4667 0.869284 15.2726 0.895065C17.4511 0.912253 19.2687 1.74585 20.6093 3.49897C21.3569 4.47866 21.7179 5.60444 21.7179 6.84194C21.7179 8.406 21.7179 9.97436 21.7179 11.5427ZM1.99521 11.5427C1.99521 13.1197 1.99521 14.6923 1.99521 16.2693C1.99521 16.974 2.1585 17.6357 2.52373 18.233C3.48193 19.8013 4.92998 20.5662 6.72607 20.5962C9.60928 20.6392 12.4968 20.6134 15.3843 20.6048C16.0933 20.6048 16.7808 20.4587 17.421 20.1537C19.1655 19.3201 20.1409 17.9923 20.1323 15.9986C20.1151 12.9478 20.128 9.89702 20.128 6.84624C20.128 5.98257 19.8831 5.19194 19.3718 4.49585C18.3835 3.15952 17.0171 2.5021 15.3843 2.48491C12.5054 2.45053 9.62646 2.47202 6.74756 2.47632C6.13311 2.47632 5.54014 2.60092 4.96436 2.81577C3.38311 3.40444 1.91357 4.89546 1.98232 7.09116C2.03389 8.57788 1.99521 10.0603 1.99521 11.5427Z" fill="#027BFF"/>
<path d="M11.0873 16.0977C8.31583 16.0977 6.08145 13.8891 6.07715 11.1391C6.07286 8.43204 8.32442 6.21485 11.0787 6.21485C13.8416 6.21055 16.0846 8.42344 16.0889 11.152C16.0889 13.8762 13.8502 16.0934 11.0873 16.0977ZM11.0873 14.5078C12.9736 14.5078 14.5033 12.9996 14.499 11.1434C14.4947 9.3043 12.965 7.8004 11.0873 7.8004C9.20098 7.8004 7.6627 9.30001 7.6627 11.152C7.667 13.0082 9.20098 14.5121 11.0873 14.5078Z" fill="#027BFF"/>
<path d="M16.6691 4.71094C17.2491 4.71094 17.7218 5.20508 17.7218 5.81094C17.7175 6.4168 17.2406 6.90664 16.6605 6.90234C16.089 6.89805 15.6206 6.4082 15.6206 5.81523C15.6163 5.20937 16.089 4.71094 16.6691 4.71094Z" fill="#027BFF"/>
</g>
<defs>
<clipPath id="clip0_2149_957">
<rect width="22" height="22" fill="white" transform="translate(0.0185547 0.5)"/>
</clipPath>
</defs>
</svg>
