<svg width="25" height="19" viewBox="0 0 25 19" fill="none" xmlns="http://www.w3.org/2000/svg">
<path d="M9.00318 8.67523L0.99707 0.712471C1.27887 0.553505 1.60403 0.466797 1.95087 0.466797H22.0673C22.4141 0.466797 22.7393 0.553505 23.0211 0.712471L15.015 8.67523L14.0612 9.6218L12.4426 11.2331C12.2909 11.3849 12.103 11.4138 12.0091 11.4138C11.9152 11.4138 11.7345 11.3921 11.5755 11.2331L9.00318 8.67523Z" fill="#027BFF"/>
<path d="M8.05669 9.62156L0.195095 17.4326C0.0722571 17.1797 0 16.8906 0 16.5872V2.41027C0 2.17182 0.0433542 1.94783 0.122837 1.73828L8.05669 9.62156Z" fill="#027BFF"/>
<path d="M15.0153 10.5684L22.8552 18.3649C22.6168 18.4733 22.3494 18.5311 22.0676 18.5311H1.95118C1.66938 18.5311 1.40202 18.4733 1.16357 18.3649L9.0035 10.5684L10.6293 12.1797C11.0122 12.5554 11.5108 12.7505 12.0094 12.7505C12.508 12.7505 13.0066 12.5627 13.3895 12.1797L15.0153 10.5684Z" fill="#027BFF"/>
<path d="M24.0182 2.40969V16.5866C24.0182 16.8901 23.946 17.1791 23.8231 17.432L15.9688 9.62097L23.9026 1.73047C23.9749 1.94724 24.0182 2.17124 24.0182 2.40969Z" fill="#027BFF"/>
</svg>
