<svg width="28" height="22" viewBox="0 0 28 22" fill="none" xmlns="http://www.w3.org/2000/svg">
<path d="M20.748 0.645997C18.312 0.645997 14.716 1.864 14.716 6.852C14.716 8.302 15.006 10.68 21.676 21.236H27.94L23.242 11.55C25.33 10.796 26.664 8.94 26.664 6.446C26.664 2.966 24.112 0.645997 20.748 0.645997ZM6.538 0.645997C4.102 0.645997 0.505998 1.864 0.505998 6.852C0.505998 8.302 0.795997 10.68 7.466 21.236H13.73L9.032 11.55C11.12 10.796 12.454 8.94 12.454 6.446C12.454 2.966 9.902 0.645997 6.538 0.645997Z" fill="#037BFF"/>
</svg>
