<svg width="28" height="22" viewBox="0 0 28 22" fill="none" xmlns="http://www.w3.org/2000/svg">
<path d="M7.252 0.645997C9.688 0.645997 13.284 1.864 13.284 6.852C13.284 8.302 12.994 10.68 6.324 21.236H0.06L4.758 11.55C2.67 10.796 1.336 8.94 1.336 6.446C1.336 2.966 3.888 0.645997 7.252 0.645997ZM21.462 0.645997C23.898 0.645997 27.494 1.864 27.494 6.852C27.494 8.302 27.204 10.68 20.534 21.236H14.27L18.968 11.55C16.88 10.796 15.546 8.94 15.546 6.446C15.546 2.966 18.098 0.645997 21.462 0.645997Z" fill="#037BFF"/>
</svg>
