<svg width="48" height="48" viewBox="0 0 48 48" fill="none" xmlns="http://www.w3.org/2000/svg">
<rect width="48" height="48" rx="24" fill="#027BFF"/>
<path fill-rule="evenodd" clip-rule="evenodd" d="M27.4394 31.1579C32.167 30.0327 35.0873 25.2881 33.9621 20.5605C32.8369 15.8329 28.0923 12.9126 23.3647 14.0378C18.6372 15.163 15.7168 19.9077 16.842 24.6352C17.9672 29.3628 22.7119 32.2831 27.4394 31.1579ZM27.2372 29.4378C30.9483 28.5545 33.2408 24.83 32.3575 21.1188C31.4742 17.4077 27.7497 15.1152 24.0385 15.9985C20.3274 16.8818 18.0349 20.6063 18.9182 24.3175C19.8015 28.0286 23.526 30.3211 27.2372 29.4378Z" fill="#D9D9D9"/>
<rect x="19.668" y="27.1943" width="2.08644" height="9.17471" transform="rotate(46.6123 19.668 27.1943)" fill="#D9D9D9"/>
</svg>
