<svg width="48" height="48" viewBox="0 0 48 48" fill="none" xmlns="http://www.w3.org/2000/svg">
<g clip-path="url(#clip0_2149_943)">
<path fill-rule="evenodd" clip-rule="evenodd" d="M39.5533 8.86188C40.0475 8.65387 40.5885 8.58212 41.1199 8.65412C41.6513 8.72611 42.1536 8.93922 42.5747 9.27125C42.9958 9.60329 43.3201 10.0421 43.514 10.542C43.708 11.042 43.7643 11.5848 43.6773 12.1139L39.1413 39.6279C38.7013 42.2819 35.7893 43.8039 33.3553 42.4819C31.3193 41.3759 28.2953 39.6719 25.5753 37.8939C24.2153 37.0039 20.0493 34.1539 20.5613 32.1259C21.0013 30.3919 28.0013 23.8759 32.0013 20.0019C33.5713 18.4799 32.8553 17.6019 31.0013 19.0019C26.3953 22.4779 19.0053 27.7639 16.5613 29.2519C14.4053 30.5639 13.2813 30.7879 11.9373 30.5639C9.48531 30.1559 7.21131 29.5239 5.35531 28.7539C2.84731 27.7139 2.96931 24.2659 5.35331 23.2619L39.5533 8.86188Z" fill="white"/>
</g>
<defs>
<clipPath id="clip0_2149_943">
<rect width="48" height="48" fill="white"/>
</clipPath>
</defs>
</svg>
