<svg width="20" height="20" viewBox="0 0 20 20" fill="none" xmlns="http://www.w3.org/2000/svg">
<path fill-rule="evenodd" clip-rule="evenodd" d="M5.95264 10.6631C4.84003 11.4184 4.06039 12.4416 4.06039 13.806V16.2424H0.81191V13.806C0.81191 12.0356 3.71118 10.9879 5.95264 10.6631Z" fill="white"/>
<path d="M12.1812 9.74599C10.3871 9.74599 8.93272 8.2916 8.93272 6.49751C8.93272 4.70342 10.3871 3.24902 12.1812 3.24902C13.9753 3.24902 15.4297 4.70342 15.4297 6.49751C15.4297 8.2916 13.9753 9.74599 12.1812 9.74599Z" fill="white"/>
<path fill-rule="evenodd" clip-rule="evenodd" d="M7.30901 9.74599C5.51423 9.74599 4.06053 8.2923 4.06053 6.49751C4.06053 4.70272 5.51423 3.24902 7.30901 3.24902C7.69071 3.24902 8.04804 3.33024 8.38913 3.44393C7.69029 4.30821 7.30904 5.38604 7.30904 6.49751C7.30904 7.60897 7.69029 8.68681 8.38913 9.55108C8.04804 9.66478 7.69071 9.74599 7.30901 9.74599ZM12.1817 10.5581C14.3501 10.5581 18.6787 11.6464 18.6787 13.8066V16.243H5.68477V13.8066C5.68477 11.6464 10.0134 10.5581 12.1817 10.5581Z" fill="white"/>
</svg>
