<svg width="30" height="17" viewBox="0 0 30 17" fill="none" xmlns="http://www.w3.org/2000/svg">
<path d="M28.8648 15.1692C28.8296 15.0935 28.7969 15.0308 28.7665 14.9805C28.2633 14.0743 27.3018 12.962 25.8826 11.6433L25.8526 11.6131L25.8376 11.5983L25.8224 11.5831H25.8072C25.163 10.9691 24.7551 10.5562 24.5843 10.3448C24.2717 9.94216 24.2017 9.53457 24.3725 9.1216C24.4932 8.80957 24.9466 8.15063 25.7315 7.14385C26.1443 6.6103 26.4713 6.18267 26.7128 5.86049C28.4544 3.54519 29.2094 2.06567 28.9778 1.42137L28.8878 1.27081C28.8274 1.18017 28.6714 1.09724 28.42 1.02162C28.168 0.946149 27.846 0.933669 27.4534 0.983963L23.1049 1.014C23.0345 0.989039 22.9339 0.991366 22.8029 1.02162C22.672 1.05187 22.6065 1.06704 22.6065 1.06704L22.5308 1.10486L22.4707 1.15029C22.4204 1.18032 22.365 1.23316 22.3046 1.30868C22.2444 1.38393 22.1942 1.47225 22.154 1.57289C21.6805 2.79089 21.1423 3.92331 20.5382 4.97012C20.1657 5.59432 19.8236 6.13528 19.5112 6.59332C19.1993 7.0512 18.9375 7.38855 18.7263 7.6048C18.5148 7.82126 18.3239 7.99467 18.1524 8.12566C17.9812 8.25671 17.8505 8.31208 17.7601 8.29183C17.6694 8.27157 17.584 8.25148 17.5031 8.23138C17.3623 8.14074 17.249 8.01746 17.1636 7.86145C17.0778 7.70544 17.02 7.50908 16.9898 7.27252C16.9598 7.03581 16.942 6.8322 16.937 6.66101C16.9322 6.49004 16.9344 6.24819 16.9446 5.93617C16.9551 5.62399 16.9598 5.41277 16.9598 5.30203C16.9598 4.91946 16.9673 4.50425 16.9822 4.05632C16.9975 3.60838 17.0098 3.25347 17.0201 2.99201C17.0303 2.73028 17.0351 2.45337 17.0351 2.16145C17.0351 1.86952 17.0173 1.64058 16.9822 1.47442C16.9475 1.30846 16.8943 1.14738 16.8241 0.991207C16.7535 0.835197 16.6502 0.714513 16.5146 0.628839C16.3787 0.543271 16.2098 0.475367 16.0088 0.424914C15.4752 0.304178 14.7958 0.238865 13.9702 0.228711C12.098 0.208615 10.8951 0.32951 10.3615 0.591238C10.1502 0.70182 9.95888 0.852913 9.78785 1.04404C9.60661 1.26557 9.58133 1.38647 9.71217 1.40636C10.3162 1.49684 10.7439 1.7133 10.9955 2.05552L11.0862 2.23686C11.1568 2.3677 11.2272 2.59934 11.2977 2.93145C11.3681 3.26357 11.4135 3.63096 11.4335 4.03342C11.4838 4.76836 11.4838 5.39748 11.4335 5.92083C11.3831 6.4444 11.3355 6.85198 11.2901 7.14391C11.2447 7.43583 11.1768 7.67239 11.0862 7.85352C10.9955 8.0347 10.9352 8.14544 10.9049 8.18564C10.8747 8.22583 10.8496 8.25116 10.8296 8.2611C10.6987 8.31124 10.5627 8.33678 10.4218 8.33678C10.2808 8.33678 10.1098 8.26623 9.90848 8.12524C9.70725 7.98425 9.49841 7.79058 9.28195 7.54393C9.06549 7.29722 8.82138 6.95246 8.54949 6.5096C8.27782 6.06674 7.99595 5.54334 7.70402 4.93939L7.46249 4.5014C7.31151 4.21963 7.10526 3.80935 6.84353 3.27092C6.58164 2.73229 6.35016 2.21127 6.14894 1.70796C6.0685 1.49658 5.94766 1.33565 5.78662 1.22491L5.71105 1.17948C5.66081 1.13929 5.58016 1.09661 5.46952 1.05113C5.35873 1.0057 5.24312 0.97312 5.12223 0.953077L0.985082 0.983116C0.562319 0.983116 0.27547 1.07889 0.124431 1.27018L0.0639829 1.36066C0.0337856 1.41106 0.0185547 1.49155 0.0185547 1.60235C0.0185547 1.71309 0.048752 1.849 0.1092 2.00993C0.713147 3.42937 1.36993 4.7983 2.07954 6.11693C2.78915 7.43557 3.40579 8.49776 3.92909 9.30257C4.45249 10.108 4.98599 10.8681 5.5296 11.5825C6.0732 12.2973 6.43303 12.7553 6.60909 12.9566C6.78536 13.1582 6.92381 13.3089 7.02445 13.4095L7.40199 13.7718C7.64357 14.0135 7.99833 14.3028 8.46641 14.64C8.9346 14.9773 9.45293 15.3095 10.0217 15.6369C10.5905 15.9638 11.2522 16.2305 12.0073 16.4368C12.7622 16.6433 13.497 16.7262 14.2117 16.6862H15.9482C16.3003 16.6558 16.5671 16.5451 16.7485 16.3539L16.8085 16.2783C16.849 16.2182 16.8868 16.1248 16.9217 15.9992C16.957 15.8734 16.9746 15.7348 16.9746 15.584C16.9642 15.1513 16.9972 14.7613 17.0725 14.414C17.1478 14.0669 17.2335 13.8051 17.3295 13.6289C17.4254 13.4528 17.5336 13.3042 17.654 13.1837C17.7747 13.063 17.8606 12.9898 17.9111 12.9646C17.9612 12.9393 18.0013 12.9221 18.0315 12.9118C18.273 12.8313 18.5574 12.9093 18.8848 13.146C19.212 13.3826 19.5189 13.6747 19.806 14.0218C20.0929 14.3693 20.4376 14.7591 20.8401 15.1918C21.243 15.6248 21.5952 15.9466 21.897 16.1583L22.1989 16.3395C22.4005 16.4603 22.6622 16.5711 22.9844 16.6717C23.306 16.7723 23.5878 16.7975 23.8297 16.7472L27.6949 16.6869C28.0772 16.6869 28.3747 16.6236 28.5857 16.498C28.7972 16.3722 28.9228 16.2336 28.9633 16.0828C29.0037 15.9319 29.0059 15.7606 28.9709 15.5692C28.9351 15.3782 28.8999 15.2447 28.8648 15.1692Z" fill="#027BFF"/>
</svg>
